# xmcd
#
# Track frame offsets: 
#        150
#        20161
#        39144
#        55999
#        67715
#        89484
#        103089
#        120721
#        137986
#        162551
#
# Disc length: 2393 seconds
#
# Revision: 0
# Processed by: cddbd v1.5.2PL0 Copyright (c) Steve Scherf et al.
# Submitted via: ExactAudioCopy v0.99pb4
#
DISCID=8809570a
DTITLE=Remmelt Muus and Femke - Evensong
DYEAR=2007
DGENRE=Southern Rock
TTITLE0=Move On
TTITLE1=Wishing
TTITLE2=Old Man
TTITLE3=Sacred Arms
TTITLE4=Gone
TTITLE5=Sad Man
TTITLE6=If I Was You
TTITLE7=Here Comes the Sun
TTITLE8=Carina's Waltz
TTITLE9=Tonight's The Night/New Mama
EXTD=
EXTT0=
EXTT1=
EXTT2=
EXTT3=
EXTT4=
EXTT5=
EXTT6=
EXTT7=
EXTT8=
EXTT9=
PLAYORDER=
